HIERARCHY
ROOT root     
{
	OFFSET 0.0000 0.0000 0.0000
	CHANNELS 6 Xposition Yposition Zposition Zrotation Yrotation Xrotation
	JOINT pelvis   
	{
		OFFSET 0.0000 0.0000 0.0000
		CHANNELS 3 Zrotation Yrotation Xrotation
		JOINT thorax   
		{
			OFFSET 0.0000 23.0750 -5.0000
			CHANNELS 3 Zrotation Yrotation Xrotation
			JOINT rclavicle
			{
				OFFSET 0.0000 28.0009 0.0000
				CHANNELS 3 Zrotation Yrotation Xrotation
				JOINT rhumerus 
				{
					OFFSET -18.5725 5.5939 0.0000
					CHANNELS 3 Zrotation Yrotation Xrotation
					JOINT rradius  
					{
						OFFSET -24.8459 0.0000 0.0000
						CHANNELS 3 Zrotation Yrotation Xrotation
						JOINT rhand    
						{
							OFFSET -24.5477 0.0000 0.0000
							CHANNELS 3 Zrotation Yrotation Xrotation
							End Site
							{
								OFFSET -8.1826 0.0000 0.0000
							}
						}
					}
				}
			}
			JOINT lclavicle
			{
				OFFSET 0.0000 28.0009 0.0000
				CHANNELS 3 Zrotation Yrotation Xrotation
				JOINT lhumerus 
				{
					OFFSET 18.5725 5.5939 0.0000
					CHANNELS 3 Zrotation Yrotation Xrotation
					JOINT lradius  
					{
						OFFSET 24.8459 0.0000 0.0000
						CHANNELS 3 Zrotation Yrotation Xrotation
						JOINT lhand    
						{
							OFFSET 24.5477 0.0000 0.0000
							CHANNELS 3 Zrotation Yrotation Xrotation
							End Site
							{
								OFFSET 8.1826 0.0000 0.0000
							}
						}
					}
				}
			}
			JOINT head     
			{
				OFFSET 0.0000 35.2030 0.0000
				CHANNELS 3 Zrotation Yrotation Xrotation
				End Site
				{
					OFFSET 0.0000 11.7343 0.0000
				}
			}
		}
		JOINT rfemur   
		{
			OFFSET -8.2817 0.0000 0.0000
			CHANNELS 3 Zrotation Yrotation Xrotation
			JOINT rtibia   
			{
				OFFSET 0.0000 -43.3627 0.0000
				CHANNELS 3 Zrotation Yrotation Xrotation
				JOINT rfoot    
				{
					OFFSET 0.0000 -38.2947 0.0000
					CHANNELS 3 Zrotation Yrotation Xrotation
					JOINT rtoes    
					{
						OFFSET 0.0000 0.0000 16.6054
						CHANNELS 3 Zrotation Yrotation Xrotation
						End Site
						{
							OFFSET 0.0000 0.0000 5.5351
						}
					}
				}
			}
		}
		JOINT lfemur   
		{
			OFFSET 8.2817 0.0000 0.0000
			CHANNELS 3 Zrotation Yrotation Xrotation
			JOINT ltibia   
			{
				OFFSET 0.0000 -43.3627 0.0000
				CHANNELS 3 Zrotation Yrotation Xrotation
				JOINT lfoot    
				{
					OFFSET 0.0000 -38.2947 0.0000
					CHANNELS 3 Zrotation Yrotation Xrotation
					JOINT ltoes    
					{
						OFFSET 0.0000 0.0000 16.6054
						CHANNELS 3 Zrotation Yrotation Xrotation
						End Site
						{
							OFFSET 0.0000 0.0000 5.5351
						}
					}
				}
			}
		}
	}
}
MOTION
Frames: 13
Frame Time: .0333333
-45.463 81.411 -13.807 -68.1566 85.9666 -45.3917 0 -0 0 -1.66673 -8.57255 20.6089 23.4824 -8.13931 3.92762e-05 56.0326 -17.954 3.12256 -0 52.5704 -0 -3.40841 0.727901 -0.0217 -15.7993 9.75955 -2.42781e-05 -41.5543 -9.9489 -2.57381 180 -86.1098 -180 2.36452 5.92081 0.122302 3.58755 1.6235 -9.97009 13.9813 -8.99142 -58.1847 -0 -0 47.7751 -5.3179e-06 -15.6594 -1.33787 0.374991 -4.01987e-08 -20.2083 -1.71941 13.424 -37.5171 -0 -0 49.9501 -8.35903e-05 10.6673 -14.2526 -2.655 5.94272e-07 -36.3833 
-44.752 81.44 -13.668 -67.3397 86.1108 -44.546 0 -0 0 -1.59822 -8.84318 20.6238 23.4831 -8.41002 5.26167e-05 55.8099 -18.4602 3.32197 -0 53.0606 -0 -3.31661 0.706598 -0.0205001 -15.702 9.78115 -3.97103e-05 -40.935 -10.051 -2.9159 180 -85.5008 180 2.39482 5.93525 0.1242 3.67917 1.58591 -10.0757 14.6224 -9.2307 -58.5073 -0 -0 45.4547 6.37713e-06 -16.2553 -1.30713 0.381104 -9.49001e-07 -19.5805 -1.69932 13.5777 -36.9118 -0 -0 49.6901 1.44777e-05 10.5395 -14.206 -2.61433 4.95769e-06 -37.2901 
-44.029 81.459 -13.526 -66.5314 86.264 -43.7166 0 -0 0 -1.519 -9.10932 20.6369 23.471 -8.67765 4.69924e-05 55.6199 -18.9478 3.49615 -0 53.5733 -0 -3.23224 0.697495 -0.0197002 -15.6335 9.80269 -4.57776e-05 -40.3258 -10.136 -3.24183 -180 -84.9529 180 2.42845 5.95095 0.126198 3.75872 1.53699 -10.1863 15.3074 -9.52079 -58.7953 -0 -0 43.1525 3.93518e-06 -16.8447 -1.24924 0.378195 1.29319e-06 -19.2362 -1.67425 13.7115 -36.2838 -0 -0 49.4269 1.08705e-05 10.4094 -14.1408 -2.56966 1.08791e-05 -38.2356 
-43.29 81.469 -13.382 -65.6641 86.4317 -42.8394 0 -0 0 -1.43101 -9.37115 20.6492 23.4476 -8.9324 2.69459e-06 55.4672 -19.4224 3.63511 -4.68328e-07 54.1073 -9.1704e-07 -3.15118 0.695895 -0.0190999 -15.59 9.82173 4.64457e-05 -39.733 -10.1982 -3.54916 180 -84.4447 -180 2.46607 5.96728 0.128604 3.82521 1.47662 -10.3005 16.0283 -9.85513 -59.0451 -0 -0 40.8899 4.946e-06 -17.3986 -1.15499 0.361902 1.4439e-06 -19.3353 -1.64284 13.8233 -35.634 -0 -0 49.1606 -2.32084e-05 10.2756 -14.0512 -2.52026 1.55794e-05 -39.2071 
-42.537 81.469 -13.234 -64.7457 86.5979 -41.9197 0 -0 0 -1.33631 -9.62838 20.6621 23.4095 -9.17852 4.14159e-06 55.3539 -19.8745 3.74552 -0 54.6446 -0 -3.07939 0.701405 -0.0189001 -15.5693 9.84367 -1.41856e-05 -39.1654 -10.2429 -3.83078 180 -83.9805 -180 2.50786 5.98585 0.131098 3.8784 1.4046 -10.4171 16.7702 -10.2221 -59.2494 -0 -0 38.6842 2.76132e-06 -17.8876 -1.01611 0.327901 4.96869e-07 -20.0037 -1.60306 13.9128 -34.96 -0 -0 48.8958 -1.8537e-05 10.1357 -13.9383 -2.46571 -4.97282e-06 -40.2016 
-41.766 81.457 -13.084 -63.6715 86.7938 -40.8626 0 -0 0 -1.24687 -9.88295 20.6765 23.3575 -9.42016 2.15381e-05 55.2834 -20.2938 3.83961 -0 55.1776 -0 -3.02405 0.716203 -0.0189005 -15.5647 9.87024 -1.08135e-05 -38.6232 -10.2692 -4.08064 180 -83.5609 180 2.55432 6.01046 0.134094 3.92087 1.3202 -10.5318 17.5107 -10.6207 -59.4034 -0 -0 36.5622 4.18761e-06 -18.2773 -0.831707 0.274699 8.15159e-07 -21.3003 -1.56259 13.9808 -34.2589 -0 -0 48.6371 2.30452e-05 9.98975 -13.8091 -2.40745 8.5962e-06 -41.1883 
-40.977 81.432 -12.929 -62.4252 87.0059 -39.6537 0 -0 0 -1.1623 -10.1325 20.6946 23.2967 -9.64187 6.69238e-05 55.2573 -20.7048 3.88902 -0 55.714 -0 -2.9671 0.728994 -0.0189 -15.565 9.89801 5.65319e-07 -38.1281 -10.2712 -4.29418 180 -83.1822 180 2.60251 6.03634 0.137195 3.95361 1.2214 -10.6393 18.2176 -11.0246 -59.4883 -0 -0 34.5282 -8.06496e-07 -18.558 -0.595805 0.200006 8.27191e-07 -23.2063 -1.5173 14.0326 -33.5305 -0 -0 48.3912 8.28913e-05 9.83399 -13.6708 -2.34602 2.76395e-06 -42.188 
-40.167 81.391 -12.771 -60.8685 87.2406 -38.1586 0 -0 0 -1.09388 -10.3777 20.7168 23.2319 -9.84519 1.17768e-05 55.2782 -21.1066 3.89491 -0 56.254 -0 -2.90789 0.737797 -0.0186997 -15.5623 9.93107 -9.56916e-05 -37.6833 -10.2543 -4.46195 -180 -82.8491 180 2.65102 6.0648 0.140502 3.97997 1.1066 -10.7347 18.8557 -11.427 -59.4946 -0 -0 32.6073 -1.2283e-06 -18.7122 -0.314002 0.1064 -9.4114e-08 -25.6049 -1.47418 14.0707 -32.7689 -0 -0 48.1614 -6.54437e-06 9.66876 -13.5382 -2.28392 -1.25591e-05 -43.1885 
-39.334 81.333 -12.611 -58.6981 87.5053 -36.0781 0 -0 0 -1.05789 -10.6202 20.7432 23.1558 -10.0483 -6.42139e-05 55.3431 -21.4775 3.89475 -0 56.7708 -0 -2.86421 0.753603 -0.0188 -15.5531 9.96962 7.56112e-05 -37.2849 -10.2168 -4.57843 -180 -82.5562 180 2.69784 6.10184 0.143797 4.00445 0.974012 -10.8125 19.3936 -11.8322 -59.4247 -0 -0 30.8372 0 -18.7204 0 0 -0 -28.2904 -1.44783 14.0973 -31.9707 -0 -0 47.9478 2.72088e-05 9.49566 -13.4242 -2.22393 -1.09118e-05 -44.1579 
-38.477 81.255 -12.449 -55.6342 87.784 -33.1283 0 -0 0 -1.05707 -10.8583 20.7715 23.0762 -10.2417 -1.18777e-07 55.4503 -21.8344 3.86895 -5.35215e-07 57.2757 -9.8012e-07 -2.82153 0.768897 -0.0189003 -15.5328 10.0139 -1.52924e-05 -36.9421 -10.1612 -4.63594 180 -82.31 180 2.73981 6.14388 0.147099 4.02785 0.821705 -10.8677 19.7973 -12.2253 -59.274 -0 -0 29.2404 -2.32848e-06 -18.5904 0.341401 -0.114799 4.60589e-07 -31.0309 -1.44023 14.1166 -31.1352 -0 -0 47.7559 -2.35929e-05 9.31419 -13.3393 -2.16697 2.45322e-05 -45.1053 
-37.595 81.157 -12.286 -51.0242 88.0944 -28.6633 0 -0 0 -1.09212 -11.0901 20.8 22.9926 -10.4321 -2.52283e-05 55.601 -22.1737 3.82554 -0 57.7622 -0 -2.78242 0.786501 -0.0191003 -15.5009 10.0627 -1.99371e-05 -36.6525 -10.0879 -4.63103 180 -82.1091 -180 2.77304 6.19041 0.150002 4.05009 0.647599 -10.899 20.039 -12.5952 -59.0439 -0 -0 27.8435 -2.14302e-06 -18.3376 0.704195 -0.233397 9.82531e-07 -33.5923 -1.4543 14.1349 -30.264 -0 -0 47.589 2.23785e-05 9.12285 -13.2853 -2.11338 7.79452e-06 -46.0439 
-36.689 81.038 -12.122 -43.7829 88.4395 -21.5998 0 -0 0 -1.1591 -11.3136 20.8231 22.907 -10.6199 4.02278e-05 55.7861 -22.4951 3.76578 -0 58.2298 -0 -2.74401 0.806203 -0.0193 -15.4585 10.1151 -4.26009e-05 -36.4156 -9.99937 -4.56077 180 -81.9627 180 2.79443 6.23936 0.152301 4.06872 0.450898 -10.9057 20.1016 -12.9308 -58.747 -0 -0 26.6779 -5.17043e-06 -17.9863 1.08661 -0.352701 1.00247e-06 -35.7731 -1.48991 14.1575 -29.3601 -0 -0 47.4511 -4.53439e-05 8.92056 -13.2615 -2.06206 1.14958e-05 -46.9919 
-35.762 80.899 -11.957 -31.8338 88.7652 -9.84919 0 -0 0 -1.24744 -11.5258 20.8364 22.8202 -10.8059 -6.66472e-05 56.0021 -22.797 3.68946 -0 58.6773 -0 -2.70524 0.828998 -0.0195994 -15.4128 10.1688 -2.07495e-05 -36.2273 -9.89599 -4.42489 -180 -81.8525 180 2.80138 6.28917 0.1539 4.07947 0.231698 -10.8922 19.9789 -13.2196 -58.3988 -0 -0 25.7705 4.24631e-06 -17.5684 1.48664 -0.470605 -3.76903e-06 -37.4074 -1.54197 14.1876 -28.435 -0 -0 47.3446 1.57014e-05 8.70399 -13.2539 -2.01021 -2.38801e-05 -47.9712 
